<?xml version="1.0" encoding="UTF-8" standalone="no"?>
<svg width="37px" height="36px" viewBox="0 0 37 36" version="1.1" xmlns="http://www.w3.org/2000/svg" xmlns:xlink="http://www.w3.org/1999/xlink">
    <!-- Generator: Sketch 3.8.3 (29802) - http://www.bohemiancoding.com/sketch -->
    <title>icon-social-g</title>
    <desc>Created with Sketch.</desc>
    <defs></defs>
    <g id="Page-1" stroke="none" stroke-width="1" fill="none" fill-rule="evenodd">
        <g id="global-footer--desktop" transform="translate(-1324.000000, -434.000000)">
            <g id="FOOTER" transform="translate(0.000000, 288.000000)">
                <g id="2" transform="translate(0.000000, 104.000000)">
                    <g id="Social-links" transform="translate(1060.444444, 42.000000)">
                        <g id="Rectangle-25-+-Fill-2-+-Fill-3-Copy-2" transform="translate(264.000000, 0.000000)">
                            <rect id="Rectangle-25" fill="#DC4E41" x="0" y="0" width="36" height="36" rx="4"></rect>
                            <g id="Fill-2-+-Fill-3-Copy-2" transform="translate(3.444444, 9.727273)" fill="#FFFFFF">
                                <path d="M0.306179897,8.61949619 C0.122274592,4.26511719 4.36019102,0.241184945 9.20292279,0.189024479 C11.6713982,-0.000676433251 14.072528,0.862156747 15.9403972,2.26932373 C15.174341,3.02725318 14.3950099,3.77731485 13.561608,4.47871285 C11.9177925,3.57974616 9.93757268,2.89437512 8.01563273,3.50310815 C4.91579226,4.29746251 3.03885731,7.59143964 4.18567525,10.3209764 C5.13531303,13.1714439 8.9879349,14.7356751 12.0071549,13.5383155 C13.5706738,13.0341948 14.600932,11.7360112 15.0535722,10.341083 C13.2614668,10.3087376 11.4696852,10.3288442 9.67790357,10.2845515 C9.67337069,9.32497378 9.66883781,8.36947564 9.67337069,7.40989791 C12.6611843,7.40581832 15.6538546,7.39765914 18.6462012,7.42213667 C18.8301065,9.77256303 18.4448119,12.2885042 16.7469256,14.1753143 C14.4218834,16.8684262 10.1256871,17.6587009 6.63148629,16.6023787 C2.92229761,15.5058433 0.225559437,12.1433873 0.306179897,8.61949619" id="Fill-2"></path>
                                <path d="M24.4699771,4.99070133 L27.1356327,4.99070133 C27.1401655,5.79321486 27.1489075,6.59951659 27.1534404,7.40173873 C28.0447983,7.40989791 28.9410129,7.4139775 29.8323708,7.41805709 L29.8323708,9.8209353 C28.9410129,9.82501489 28.0447983,9.82909448 27.1534404,9.83288267 C27.1443746,10.6394758 27.1401655,11.4416979 27.1356327,12.2479997 C26.243951,12.2439201 25.352593,12.2479997 24.4654442,12.2479997 C24.4567022,11.4416979 24.4567022,10.6394758 24.4476365,9.83696226 C23.5562785,9.82909448 22.660064,9.82501489 21.768706,9.8209353 L21.768706,7.41805709 C22.660064,7.4139775 23.5517457,7.40989791 24.4476365,7.40173873 C24.4521693,6.59951659 24.4612351,5.79321486 24.4699771,4.99070133" id="Fill-3"></path>
                            </g>
                        </g>
                    </g>
                </g>
            </g>
        </g>
    </g>
</svg>