<svg xmlns="http://www.w3.org/2000/svg" xmlns:xlink="http://www.w3.org/1999/xlink" width="16" height="16" viewBox="0 0 16 16"><symbol id="a" viewBox="-8 -8 16 16"><path d="M7.504-5.615l-3.79 3.223c-.391.353-.81.514-1.148.499a6 6 0 1 1-.673-.672c-.016-.338.147-.757.499-1.149l3.224-3.79c.552-.613 1.453-.665 2.003-.115.549.55.498 1.452-.115 2.004zM-2-1.999a4 4 0 1 0 0 8 4 4 0 0 0 0-8zm1 7h-2v-2h-2v-2h2v-2h2v2h2v2h-2v2z" fill="#fff"/><path fill="none" d="M8-8H-8V8H8z"/></symbol><use xlink:href="#a" width="16" height="16" x="-8" y="-8" transform="matrix(1 0 0 -1 8 8)" overflow="visible"/></svg>